HIERARCHY
ROOT ui
{
	 OFFSET 0 0 0
	 CHANNELS 3 XPosition YPosition Z Position
	 EndSite
	 {
	 OFFSET 0 -1 0
	 }
}
ROOT li
{
	 OFFSET 0 0 0
	 CHANNELS 3 XPosition YPosition Z Position
	 EndSite
	 {
	 OFFSET 0 -1 0
	 }
}
ROOT ul
{
	 OFFSET 0 0 0
	 CHANNELS 3 XPosition YPosition Z Position
	 EndSite
	 {
	 OFFSET 0 -1 0
	 }
}
ROOT ll
{
	 OFFSET 0 0 0
	 CHANNELS 3 XPosition YPosition Z Position
	 EndSite
	 {
	 OFFSET 0 -1 0
	 }
}
ROOT tt
{
	 OFFSET 0 0 0
	 CHANNELS 3 XPosition YPosition Z Position
	 EndSite
	 {
	 OFFSET 0 -1 0
	 }
}
ROOT tb
{
	 OFFSET 0 0 0
	 CHANNELS 3 XPosition YPosition Z Position
	 EndSite
	 {
	 OFFSET 0 -1 0
	 }
}
ROOT td
{
	 OFFSET 0 0 0
	 CHANNELS 3 XPosition YPosition Z Position
	 EndSite
	 {
	 OFFSET 0 -1 0
	 }
}
ROOT v
{
	 OFFSET 0 0 0
	 CHANNELS 3 XPosition YPosition Z Position
	 EndSite
	 {
	 OFFSET 0 -1 0
	 }
}
ROOT bn
{
	 OFFSET 0 0 0
	 CHANNELS 3 XPosition YPosition Z Position
	 EndSite
	 {
	 OFFSET 0 -1 0
	 }
}
MOTION
Frames: 18
Frame Time: 0.002
-0.00281002402305603	-4.946799948811531E-5	0		0.44869021606445314	-2.3832333984375	0		-1.1309832763671874	0.06988701629638672	0		-0.8344282836914062	-2.459259033203125	0		1.2728092041015624	-0.9440137939453125	0		2.748718017578125	-0.12947480773925782	0		4.47804736328125	0.11066009521484375	0		5.57972265625	0.12928475952148438	0		-0.40205758666992186	5.8777490234375	0		
-0.009462263107299805	-0.00937865924835205	0		0.43584423828125	-2.383542724609375	0		-1.1264534912109374	0.07355855560302735	0		-0.7843567504882812	-2.46524072265625	0		1.2821243896484376	-0.946725830078125	0		2.791365234375	-0.11582427978515625	0		4.4724365234375	0.10272589111328125	0		5.57876318359375	0.15502009582519533	0		-0.3856819763183594	5.8871767578125	0		
0.019010923385620118	-0.0061809468269348146	0		0.45708206176757815	-2.373313232421875	0		-1.1219530029296876	0.07823580932617187	0		-0.8260570068359375	-2.44899072265625	0		1.287523193359375	-0.939397705078125	0		2.76374755859375	-0.1182596435546875	0		4.48899365234375	0.11046125793457032	0		5.5790849609375	0.15988070678710936	0		-0.2672474365234375	5.9002236328125	0		
-0.013586627006530762	-0.004166285991668701	0		0.42541812133789064	-2.351376708984375	0		-1.1256094970703125	0.0750186538696289	0		-0.7611912231445312	-2.46119140625	0		1.28268017578125	-0.9459462280273437	0		2.745064453125	-0.12182899475097657	0		4.47531591796875	0.10457657623291015	0		5.5764208984375	0.14748477172851562	0		-0.2660151672363281	5.9008291015625	0		
-0.008312000274658202	-0.007678592205047607	0		0.45103302001953127	-2.378240234375	0		-1.1252677001953124	0.07573623657226562	0		-0.8341690063476562	-2.45652001953125	0		1.276970947265625	-0.9384959106445312	0		2.766279052734375	-0.12896186828613282	0		4.48666064453125	0.10432998657226562	0		5.57663671875	0.14706570434570312	0		-0.2648283386230469	5.901421875	0		
-0.01298658275604248	-0.0030700960159301756	0		0.44891607666015626	-2.380739501953125	0		-1.12902783203125	0.07349378967285156	0		-0.7653599853515625	-2.46382177734375	0		1.279965087890625	-0.948184326171875	0		2.757559326171875	-0.1267006149291992	0		4.47003125	0.11045235443115234	0		5.57678076171875	0.14142631530761718	0		-0.41592266845703124	5.88711865234375	0		
-0.01277983570098877	-0.0025488131046295165	0		0.43576605224609377	-2.381101806640625	0		-1.12476806640625	0.07711988067626953	0		-0.8344037475585937	-2.455220703125	0		1.2830771484375	-0.944892578125	0		2.773732421875	-0.12780535125732423	0		4.48025341796875	0.11018429565429687	0		5.57986181640625	0.15815129089355467	0		-0.41486383056640624	5.8876982421875	0		
-0.009579115867614747	0.0019094690084457398	0		0.46252471923828126	-2.38404833984375	0		-1.124612548828125	0.07778022003173828	0		-0.7507752685546875	-2.466795654296875	0		1.28612890625	-0.9416194458007813	0		2.76684521484375	-0.1286026611328125	0		4.48041357421875	0.11004334259033204	0		5.5728134765625	0.15790231323242188	0		-0.39495071411132815	5.8829873046875	0		
-0.012550895690917968	-0.0015668330192565919	0		0.39881472778320315	-2.345718505859375	0		-1.1245166015625	0.07841626739501953	0		-0.7989006958007813	-2.456523193359375	0		1.28303955078125	-0.9442769775390625	0		2.778839111328125	-0.13368244934082033	0		4.48742724609375	0.10379593658447266	0		5.5770634765625	0.14514608764648437	0		-0.26074090576171877	5.9036083984375	0		
0.012477829933166503	-0.0014701989889144898	0		0.4463795166015625	-2.356010009765625	0		-1.0535399169921875	0.07399640655517578	0		-0.7683056030273437	-2.46340673828125	0		1.279900390625	-0.9469489135742187	0		2.7429580078125	-0.12607888793945313	0		4.47647412109375	0.1038070068359375	0		5.57999267578125	0.15666290283203124	0		-0.25991220092773437	5.9041005859375	0		
-0.00759357213973999	-0.004743127822875976	0		0.4316378479003906	-2.384423828125	0		-1.12447900390625	0.07960633850097656	0		-0.7927235717773438	-2.46852001953125	0		1.2797633056640625	-0.946678466796875	0		2.778820556640625	-0.13352316284179688	0		4.491353515625	0.09544637298583984	0		5.5841396484375	0.138739501953125	0		-0.3773426818847656	5.8932978515625	0		
0.012408645629882812	-6.238089799880982E-4	0		0.46131857299804685	-2.382505615234375	0		-1.1185977783203125	0.0750697021484375	0		-0.7920499267578125	-2.466024169921875	0		1.2944444580078125	-0.9566411743164063	0		2.770898681640625	-0.12333203887939453	0		4.48848876953125	0.10735416412353516	0		5.58701025390625	0.15029850769042968	0		-0.3747060241699219	5.891728515625	0		
-0.009616072654724122	0.004094106197357178	0		0.43603594970703125	-2.376794677734375	0		-1.11461669921875	0.07953075408935546	0		-0.7544234619140625	-2.466105712890625	0		1.285487060546875	-0.940264892578125	0		2.778648193359375	-0.13337489318847656	0		4.48735498046875	0.10324751281738281	0		5.57983349609375	0.15533226013183593	0		-0.24375968933105469	5.915228515625	0		
0.017133657455444335	-0.004935835838317871	0		0.4766806030273438	-2.376082763671875	0		-1.124705078125	0.0811712417602539	0		-0.769737060546875	-2.461428955078125	0		1.2822294921875	-0.9429840087890625	0		2.747524658203125	-0.13283393859863282	0		4.4872529296875	0.10314253997802734	0		5.57681103515625	0.14295999145507812	0		-0.2573916015625	5.90583740234375	0		
-0.012921828269958496	8.667979836463928E-4	0		0.39271585083007815	-2.348513671875	0		-1.124830810546875	0.08163396453857422	0		-0.77417138671875	-2.464940185546875	0		1.2789586181640624	-0.9457111206054688	0		2.783268310546875	-0.14029165649414063	0		4.48303955078125	0.09711743927001953	0		5.57670263671875	0.14264112854003907	0		-0.25596304321289065	5.9052001953125	0		
0.016849239349365233	-0.004252100944519043	0		0.45580255126953123	-2.3851806640625	0		-1.1249732666015626	0.08206892395019531	0		-0.8095076293945312	-2.46200634765625	0		1.2856173095703125	-0.9525968017578125	0		2.7573212890625	-0.12581421661376954	0		4.484958984375	0.10101924133300781	0		5.57951171875	0.15437185668945314	0		-0.38890203857421873	5.885576171875	0		
-0.008294483184814454	-0.0025553610324859618	0		0.4325546875	-2.37755126953125	0		-1.1251280517578126	0.0824784164428711	0		-0.764044189453125	-2.473322509765625	0		1.287423095703125	-0.949416015625	0		2.778040283203125	-0.13304261779785156	0		4.4899267578125	0.10889119720458984	0		5.58231396484375	0.16614340209960937	0		-0.37442974853515626	5.8957109375	0		
0.01464004611968994	0.004394277095794678	0		0.45132666015625	-2.369573486328125	0		-1.1212308349609375	0.08680330657958985	0		-0.8421148681640624	-2.453770263671875	0		1.290242919921875	-0.9452569580078125	0		2.7778603515625	-0.13294906616210939	0		4.486673828125	0.10290286254882812	0		5.57925439453125	0.15394914245605468	0		-0.25498699951171877	5.906216796875	0		
